<?xml version="1.0" ?><!DOCTYPE svg  PUBLIC '-//W3C//DTD SVG 1.1//EN'  'http://www.w3.org/Graphics/SVG/1.1/DTD/svg11.dtd'><svg enable-background="new 0 0 512 512" id="Layer_1" version="1.1" viewBox="0 0 512 512" xml:space="preserve" xmlns="http://www.w3.org/2000/svg" xmlns:xlink="http://www.w3.org/1999/xlink"><g><path d="M257.3,6.2C395,6.2,506,118.7,505.4,258.9C504.9,396.4,393.7,509.3,254,507.8   C117.4,506.2,7.1,393.7,8.5,254.3C9.8,117.6,119.6,6.4,257.3,6.2z M257.5,25.8C133,25.3,29.4,126.6,28.1,254.4   c-1.4,130.1,102.6,232.7,226.7,233.8c125.6,1.2,230.3-100.6,231.1-228.9C486.6,129.7,384.4,25.8,257.5,25.8z" fill="#DE2F2B"/><path d="M248,157.7c40.3,0,73.7,0.7,106.9,2.5c8.3,0.4,16.7,0.6,24.7,3.2c16.3,5.5,23.9,18.1,27.5,33.9   c3.5,15.5,4.1,31.4,4.4,47.2c0.6,28,0.8,56-2.6,83.8c-1.1,9.2-3.5,18-7.8,26.2c-6.3,11.8-16.9,17.6-29.7,19.5   c-13.5,1.9-27.2,2.2-40.9,2.7c-55.8,2.1-111.6,1.5-167.4-0.7c-9.3-0.4-18.6-1-27.8-3c-13.9-3.1-24-10.6-29.1-24.5   c-5.7-15.5-6.3-31.6-7.2-47.7c-1.6-30.8-1.2-61.6,2.1-92.3c1-9,3.3-17.7,7.3-25.8c7.1-14.5,19.9-20.3,35.2-21.5   C180.7,158.3,217.9,157.9,248,157.7z M222.2,313.2c30.8-16.9,60.8-33.3,91.5-50.1c-8-4.4-15.2-8.4-22.5-12.3   c-21.6-11.8-43.1-23.7-64.7-35.5c-1.7-0.9-4.3-3.5-4.3,1.5C222.2,248.6,222.2,280.4,222.2,313.2z" fill="#DD2C29"/><path d="M222.2,313.2c0-32.8,0-64.6,0-96.4c0-5,2.6-2.4,4.3-1.5c21.6,11.8,43.2,23.7,64.7,35.5   c7.2,4,14.5,7.9,22.5,12.3C282.9,280,253,296.4,222.2,313.2z" fill="#FEFDFD"/></g></svg>